<svg
  xmlns="http://www.w3.org/2000/svg"
  width="24"
  height="24"
  viewBox="0 0 24 24"
  style="color-scheme: light dark"
  fill="light-dark(#000,#fff)"
>
  <path
    d="M5 20q-.83 0-1.41-.59Q3 18.83 3 18V6q0-.83.59-1.41Q4.18 4 5 4h1V2h2v2h6V2h2v2h1q.82 0 1.41.59.6.59.59 1.41v6.1q-.5-.07-1-.07t-1 .07V10H5v8h7q0 .5.08 1t.27 1zM17.16 21.64q-.81 0-1.5-.4-.7-.4-1.1-1.1h-1.4v-1h1.05q-.04-.26-.05-.51v-.5h-1v-1h1v-.5q.01-.25.05-.5h-1.05v-1h1.4q.17-.3.4-.54.21-.25.5-.44l-.8-.83.7-.7 1.08 1.08q.35-.12.71-.12t.72.12l1.1-1.08.7.7-.83.83q.29.19.52.43t.4.54h1.41v1h-1.05q.04.26.04.5v.5h1.01v1.01h-1v.5q-.01.25-.05.5h1.05v1h-1.4q-.4.7-1.1 1.1t-1.5.4m-1-2.5h2v-1h-2zm0-2h2v-1h-2z"
  />
</svg>
